<?xml version="1.0" encoding="UTF-8" standalone="no"?>
<svg
   xmlns:dc="http://purl.org/dc/elements/1.1/"
   xmlns:cc="http://creativecommons.org/ns#"
   xmlns:rdf="http://www.w3.org/1999/02/22-rdf-syntax-ns#"
   xmlns:svg="http://www.w3.org/2000/svg"
   xmlns="http://www.w3.org/2000/svg"
   xmlns:sodipodi="http://sodipodi.sourceforge.net/DTD/sodipodi-0.dtd"
   xmlns:inkscape="http://www.inkscape.org/namespaces/inkscape"
   style="height: 512px; width: 512px;"
   viewBox="0 0 512 512"
   version="1.1"
   id="svg8"
   sodipodi:docname="rek_mtyr_crucible_overflow.svg"
   inkscape:export-filename="D:\Games\SteamLibrary\steamapps\common\TalesMajEyal\game\addons\tome-classmartyr\overload\data\gfx\talents\source\rek_mtyr_crucible_overflow.png"
   inkscape:export-xdpi="25.4"
   inkscape:export-ydpi="25.4"
   inkscape:version="0.92.4 (5da689c313, 2019-01-14)">
  <metadata
     id="metadata14">
    <rdf:RDF>
      <cc:Work
         rdf:about="">
        <dc:format>image/svg+xml</dc:format>
        <dc:type
           rdf:resource="http://purl.org/dc/dcmitype/StillImage" />
      </cc:Work>
    </rdf:RDF>
  </metadata>
  <defs
     id="defs12" />
  <sodipodi:namedview
     pagecolor="#ffffff"
     bordercolor="#666666"
     borderopacity="1"
     objecttolerance="10"
     gridtolerance="10"
     guidetolerance="10"
     inkscape:pageopacity="0"
     inkscape:pageshadow="2"
     inkscape:window-width="1920"
     inkscape:window-height="1057"
     id="namedview10"
     showgrid="false"
     inkscape:zoom="0.4609375"
     inkscape:cx="256"
     inkscape:cy="256"
     inkscape:window-x="-8"
     inkscape:window-y="-8"
     inkscape:window-maximized="1"
     inkscape:current-layer="svg8" />
  <path
     d="M 0 0 L 0 512 L 512 512 L 512 0 L 0 0 z M 65.125 18.34375 L 86.96875 18.34375 C 67.03575 49.15975 55.404297 85.697047 55.404297 125.12305 C 55.404297 195.44705 92.13875 257.15805 147.46875 292.12305 C 146.76375 299.04005 146.24675 305.96905 145.84375 312.87305 C 80.69275 275.62005 36.720703 205.41605 36.720703 125.12305 C 36.720703 86.261047 47.11 49.84375 65.125 18.34375 z M 134.1543 18.34375 L 134.15625 18.34375 L 160.90625 18.34375 C 130.72425 44.28675 111.4707 82.275047 111.4707 125.12305 C 111.4707 167.69205 130.2407 205.82275 159.9707 231.71875 C 157.7537 237.83575 155.89325 244.23375 154.28125 250.84375 L 154.2207 251.09375 C 116.8327 221.77975 92.78125 176.20305 92.78125 125.12305 C 92.78125 83.978047 108.5443 46.61675 134.1543 18.34375 z M 344.6875 18.34375 C 344.6875 18.34375 344.68945 18.345703 344.68945 18.345703 L 371.4043 18.345703 C 397.0003 46.625703 412.81055 84.003953 412.81055 125.12695 C 412.81055 174.89895 389.96675 219.41525 354.21875 248.78125 C 352.67775 241.97025 350.8225 235.37575 348.5625 229.09375 C 376.5795 203.28075 394.125 166.27505 394.125 125.12305 C 394.125 82.347036 374.81326 44.295663 344.68945 18.345703 L 344.68555 18.345703 L 344.6875 18.34375 z M 418.0957 18.345703 L 440.03125 18.345703 C 458.16025 49.797703 468.9043 86.2 468.9043 125.125 C 468.9043 204.757 425.642 274.4545 361.375 311.9375 C 361.121 304.9215 360.7325 297.85145 360.1875 290.81445 C 414.3675 255.62945 450.1875 194.58005 450.1875 125.12305 C 450.1875 85.731009 438.15482 49.212226 418.0957 18.345703 z M 252.78125 20.623047 L 252.7832 20.625 C 310.4102 20.625 357.31445 67.528297 357.31445 125.1543 C 357.31445 152.5613 346.70395 177.55275 329.37695 196.21875 C 325.08295 191.71875 320.17745 187.82555 314.68945 184.68555 C 329.51945 169.26955 338.62695 148.31625 338.62695 125.15625 C 338.62695 77.62925 300.30925 39.3125 252.78125 39.3125 C 205.25425 39.3125 166.93945 77.62925 166.93945 125.15625 C 166.93945 149.19925 176.7517 170.87555 192.5957 186.43555 C 187.3417 189.80855 182.63195 193.91495 178.50195 198.62695 C 159.81195 179.72995 148.25195 153.76225 148.25195 125.15625 C 148.25195 67.53025 195.15625 20.623047 252.78125 20.623047 z M 248.59375 76.185547 C 248.81875 76.156547 250.42175 76.248047 253.09375 76.248047 C 276.90375 76.248047 298.56055 101.95375 298.56055 136.46875 C 298.56055 153.87975 292.68175 169.485 283.96875 180.375 L 273.875 193 L 289.81445 195.4707 C 303.12745 197.5267 312.27625 203.77945 319.78125 213.81445 C 327.28925 223.84945 332.71125 237.89245 336.28125 254.18945 C 342.79725 283.91645 343.1675 320.40625 343.1875 352.40625 L 306.0625 352.40625 L 305.4707 361.12695 L 296.7207 493.56445 L 213.0293 493.56445 L 203.12305 361.06445 L 202.46875 352.4082 L 163.4707 352.4082 C 163.7017 320.7802 165.2495 284.78125 172.4375 255.28125 C 176.3845 239.09125 181.99625 225.01995 189.40625 214.87695 C 196.81825 204.73395 205.55545 198.4467 217.43945 196.2207 L 233.0957 193.28125 L 222.90625 181.0625 C 213.79725 170.1205 207.625 154.31475 207.625 136.46875 C 207.625 104.09875 226.9737 78.9875 248.5957 76.1875 L 248.59375 76.185547 z "
     id="path2" />
</svg>
