<?xml version="1.0" encoding="UTF-8" standalone="no"?>
<svg
   xmlns:dc="http://purl.org/dc/elements/1.1/"
   xmlns:cc="http://creativecommons.org/ns#"
   xmlns:rdf="http://www.w3.org/1999/02/22-rdf-syntax-ns#"
   xmlns:svg="http://www.w3.org/2000/svg"
   xmlns="http://www.w3.org/2000/svg"
   xmlns:sodipodi="http://sodipodi.sourceforge.net/DTD/sodipodi-0.dtd"
   xmlns:inkscape="http://www.inkscape.org/namespaces/inkscape"
   style="height: 512px; width: 512px;"
   viewBox="0 0 512 512"
   version="1.1"
   id="svg8"
   sodipodi:docname="rek_mtyr_crucible_resonation.svg"
   inkscape:export-filename="D:\Games\SteamLibrary\steamapps\common\TalesMajEyal\game\addons\tome-classmartyr\overload\data\gfx\talents\source\rek_mtyr_crucible_resonation.png"
   inkscape:export-xdpi="25.4"
   inkscape:export-ydpi="25.4"
   inkscape:version="0.92.4 (5da689c313, 2019-01-14)">
  <metadata
     id="metadata14">
    <rdf:RDF>
      <cc:Work
         rdf:about="">
        <dc:format>image/svg+xml</dc:format>
        <dc:type
           rdf:resource="http://purl.org/dc/dcmitype/StillImage" />
      </cc:Work>
    </rdf:RDF>
  </metadata>
  <defs
     id="defs12" />
  <sodipodi:namedview
     pagecolor="#ffffff"
     bordercolor="#666666"
     borderopacity="1"
     objecttolerance="10"
     gridtolerance="10"
     guidetolerance="10"
     inkscape:pageopacity="0"
     inkscape:pageshadow="2"
     inkscape:window-width="1920"
     inkscape:window-height="1057"
     id="namedview10"
     showgrid="false"
     inkscape:zoom="0.4609375"
     inkscape:cx="-14.101695"
     inkscape:cy="256"
     inkscape:window-x="-8"
     inkscape:window-y="-8"
     inkscape:window-maximized="1"
     inkscape:current-layer="svg8" />
  <path
     d="M 0 0 L 0 512 L 512 512 L 512 0 L 0 0 z M 211.5625 18.25 L 211.56055 18.251953 C 218.86855 18.139953 223.81505 20.053453 227.99805 23.189453 C 232.46005 26.533453 236.07375 31.685453 238.84375 38.189453 C 244.37975 51.196453 245.96875 69.100703 245.96875 82.220703 L 245.96875 82.28125 L 246.15625 113.125 L 246.15625 113.25 L 264.84375 113.25 L 264.84375 113.125 L 265 82.279297 L 265 82.220703 C 265 69.102703 266.58714 51.1945 272.11914 38.1875 C 274.88814 31.6845 278.50184 26.5325 282.96484 23.1875 C 287.42584 19.8425 292.79564 17.9045 300.93164 18.3125 L 301.15234 18.345703 L 301.40234 18.345703 C 310.68634 18.345703 318.4298 21.385703 321.7168 25.220703 C 324.5128 28.482703 326.0953 32.805703 322.7793 41.595703 C 316.5863 49.876703 311.86059 61.77125 307.80859 77.53125 L 325.90234 82.189453 C 329.32234 68.886453 333.20859 60.124953 336.80859 54.626953 L 337.3418 54.908203 C 337.7878 53.998203 338.1988 53.0905 338.5918 52.1875 C 340.7418 49.4385 342.72409 47.819703 344.37109 47.095703 C 346.74909 46.048703 349.05784 45.9525 352.71484 47.0625 C 356.37284 48.1745 361.04555 50.73825 366.18555 54.53125 C 374.04055 60.33125 378.83555 67.74725 378.56055 73.78125 C 378.35055 78.39425 375.53855 84.52825 365.31055 91.40625 C 364.25455 91.99125 363.20409 92.5725 362.12109 93.1875 L 362.2168 93.375 C 359.7138 94.878 356.8688 96.413703 353.5918 97.970703 L 361.5918 114.8457 C 366.0958 112.7077 370.16655 110.4537 373.81055 108.0957 C 387.25155 100.7217 397.06605 97.588953 401.99805 98.001953 C 404.61005 98.220953 406.05334 98.8495 408.02734 100.8125 C 410.00334 102.7765 412.31359 106.46095 414.43359 112.37695 C 417.97359 122.25295 418.4648 130.08825 415.9668 134.15625 C 413.9768 137.39625 408.7338 141.11925 395.8418 142.40625 C 392.6058 142.47825 389.18955 142.61625 385.43555 142.78125 L 385.43555 142.875 C 385.07455 142.875 384.74305 142.878 384.37305 142.875 L 384.21875 161.5625 C 387.96175 161.5975 391.47255 161.4667 394.81055 161.2207 C 405.85255 161.1457 412.46875 162.05045 414.96875 163.31445 C 416.51475 164.09445 417.001 164.5657 417.875 166.3457 C 418.75 168.1257 419.6207 171.3952 420.2207 176.2832 C 420.7667 180.7532 420.376 183.9365 419.5 186.0625 C 418.624 188.1895 417.4175 189.7125 414.1875 191.4375 C 407.7295 194.8875 392.55 197.2375 367 195.0625 L 365.4375 213.68555 C 383.1595 215.19455 396.89375 215.16355 407.84375 213.06055 C 403.16375 228.22755 393.321 235.12305 382.125 235.12305 L 287.93555 235.12305 C 278.64855 235.12305 269.0573 227.30405 264.4043 212.49805 L 254.49805 180.93555 L 246.43555 212.99805 C 242.81855 227.37805 233.5753 235.12305 223.0293 235.12305 L 128.87305 235.12305 C 117.71305 235.12305 107.8573 228.27875 103.1543 213.21875 C 113.9683 215.16875 127.46605 215.1575 144.74805 213.6875 L 143.1543 195.0625 C 117.6033 197.2375 102.42575 194.8875 95.96875 191.4375 C 92.73875 189.7125 91.53125 188.1895 90.65625 186.0625 C 89.78025 183.9365 89.388547 180.7513 89.935547 176.2793 C 90.535547 171.3913 91.4375 168.1218 92.3125 166.3418 C 93.1865 164.5618 93.66875 164.0925 95.21875 163.3125 C 97.71875 162.0495 104.335 161.14175 115.375 161.21875 C 118.715 161.46575 122.2257 161.5975 125.9707 161.5625 L 125.7793 142.875 C 125.4233 142.878 125.1 142.875 124.75 142.875 L 124.75 142.7793 C 120.993 142.6133 117.5555 142.4773 114.3125 142.4043 C 101.4275 141.1183 96.208703 137.3943 94.220703 134.1543 C 91.720703 130.0873 92.21 122.25005 95.75 112.37305 C 97.87 106.45805 100.18125 102.7755 102.15625 100.8125 C 104.13125 98.8495 105.5745 98.218047 108.1875 97.998047 C 113.0995 97.586047 122.8607 100.68805 136.2207 107.99805 C 139.8977 110.38705 144.00445 112.67975 148.56445 114.84375 L 156.5957 97.96875 C 153.3027 96.40575 150.4495 94.85375 147.9375 93.34375 L 148.03125 93.1875 C 147.02325 92.6135 146.0465 92.07825 145.0625 91.53125 C 134.6845 84.60325 131.837 78.42125 131.625 73.78125 C 131.35 67.74525 136.1127 60.32925 143.9707 54.53125 C 149.1107 50.73625 153.8107 48.1745 157.4707 47.0625 C 161.1267 45.9515 163.4033 46.04675 165.7793 47.09375 C 170.5353 49.18675 178.15 58.4595 184.25 82.1875 L 202.34375 77.529297 C 198.72875 63.467297 194.5645 52.492297 189.3125 44.404297 C 184.5115 33.678297 186.17 28.81175 189.25 25.21875 C 192.536 21.38475 200.31075 18.34375 209.59375 18.34375 L 209.8125 18.34375 L 210.0625 18.3125 C 210.5705 18.2865 211.0745 18.257 211.5625 18.25 z M 255.78125 236.15625 C 263.73725 246.82225 274.9575 253.8125 287.9375 253.8125 L 327.09375 253.8125 C 325.07975 257.7755 322.0045 261.378 317.8125 264.75 C 304.3535 275.574 279.3737 282.22175 254.2207 282.34375 C 229.0657 282.46475 203.88025 276.0885 190.15625 265.5625 C 185.46225 261.9625 182.1417 258.0875 180.0957 253.8125 L 223.03125 253.8125 C 236.35125 253.8125 247.93125 246.85925 255.78125 236.15625 z M 279.1875 299.18555 L 279.1875 299.1875 L 278.0625 317.15625 L 295.9375 317.15625 L 295.93555 335.8457 L 276.90625 335.8457 L 275.8125 353.75195 L 231.87695 353.75195 L 230.93555 335.8457 L 211.65625 335.8457 L 211.65625 317.15625 L 229.9707 317.15625 L 229.0625 299.37695 C 237.3255 300.53995 245.8185 301.07325 254.3125 301.03125 C 262.6815 300.99125 271.0575 300.40155 279.1875 299.18555 z M 232.8457 372.43945 L 274.65625 372.43945 L 273.56445 390.0957 L 287.03125 390.0957 L 287.03125 408.78125 L 272.40625 408.78125 L 271.4375 424.78125 L 235.5625 424.78125 L 234.7207 408.78125 L 218.4375 408.78125 L 218.4375 390.09375 L 233.75195 390.09375 L 232.8457 372.43945 z M 236.53125 443.46875 L 236.5332 443.46875 L 270.2832 443.46875 L 269.3457 458.875 L 284.75195 458.875 L 284.75195 477.5625 L 268.18945 477.5625 L 267.22266 493 L 239.09766 493 L 238.2832 477.5625 L 222.8457 477.5625 L 222.8457 458.875 L 237.3457 458.875 L 236.53125 443.46875 z "
     id="path2" />
</svg>
