<?xml version="1.0" encoding="UTF-8" standalone="no"?>
<svg
   xmlns:dc="http://purl.org/dc/elements/1.1/"
   xmlns:cc="http://creativecommons.org/ns#"
   xmlns:rdf="http://www.w3.org/1999/02/22-rdf-syntax-ns#"
   xmlns:svg="http://www.w3.org/2000/svg"
   xmlns="http://www.w3.org/2000/svg"
   xmlns:sodipodi="http://sodipodi.sourceforge.net/DTD/sodipodi-0.dtd"
   xmlns:inkscape="http://www.inkscape.org/namespaces/inkscape"
   style="height: 512px; width: 512px;"
   viewBox="0 0 512 512"
   version="1.1"
   id="svg8"
   sodipodi:docname="rek_mtyr_standard_symbiosis.svg"
   inkscape:version="0.92.4 (5da689c313, 2019-01-14)"
   inkscape:export-filename="D:\Games\SteamLibrary\steamapps\common\TalesMajEyal\game\addons\tome-classmartyr\overload\data\gfx\talents\rek_mtyr_standard_symbiosis.png"
   inkscape:export-xdpi="12"
   inkscape:export-ydpi="12">
  <metadata
     id="metadata14">
    <rdf:RDF>
      <cc:Work
         rdf:about="">
        <dc:format>image/svg+xml</dc:format>
        <dc:type
           rdf:resource="http://purl.org/dc/dcmitype/StillImage" />
      </cc:Work>
    </rdf:RDF>
  </metadata>
  <defs
     id="defs12" />
  <sodipodi:namedview
     pagecolor="#ffffff"
     bordercolor="#666666"
     borderopacity="1"
     objecttolerance="10"
     gridtolerance="10"
     guidetolerance="10"
     inkscape:pageopacity="0"
     inkscape:pageshadow="2"
     inkscape:window-width="1920"
     inkscape:window-height="1057"
     id="namedview10"
     showgrid="false"
     inkscape:zoom="0.4609375"
     inkscape:cx="464.23913"
     inkscape:cy="42.273324"
     inkscape:window-x="-8"
     inkscape:window-y="-8"
     inkscape:window-maximized="1"
     inkscape:current-layer="svg8" />
  <path
     d="M 0 0 L 0 512 L 512 512 L 512 0 L 0 0 z M 256 23.570312 L 272.09961 72.429688 L 239.90039 72.429688 L 256 23.570312 z M 73 90.429688 L 439 90.429688 L 439 106.40039 L 73 106.40039 L 73 90.429688 z M 121 124.40039 L 209.22656 124.40039 C 177.59933 157.21747 188.37601 219.06106 238.17578 240.7793 C 306.47213 270.56629 298.56788 320.30876 250.85938 329.71289 C 223.80434 335.04621 201.39366 321.40278 197.03516 304.42188 C 190.60985 279.38937 215.10929 249.59862 254.67773 284.5957 C 216.15381 218.6204 169.62382 265.50258 173.47656 307.52734 C 175.72773 332.06547 198.73913 354.29188 239.89648 353.75977 C 241.22476 353.74297 242.56879 353.70377 243.93359 353.63867 C 246.84683 353.49836 249.99432 353.0588 253.07617 352.69531 C 338.44525 342.5762 369.48157 274.97368 297.00781 221.82812 C 255.89065 191.67651 254.16235 161.41584 322.80664 124.40039 L 391 124.40039 L 391 479 C 260.25695 377.31096 250.78792 358.16715 121 479 L 121 124.40039 z M 231.25195 131.42383 C 243.08804 131.24316 252.58267 135.7636 253.44336 142.5293 C 254.42701 150.262 243.76141 157.9987 229.61523 159.79883 C 227.84721 160.02246 226.10372 160.13826 224.41211 160.16406 L 224.41211 160.16602 C 212.57488 160.34494 203.07216 155.81725 202.21094 149.05078 C 201.22781 141.3186 211.90952 133.59505 226.05469 131.79492 C 227.82283 131.57003 229.56108 131.44963 231.25195 131.42383 z M 223.64844 167.93359 C 224.18738 167.92393 224.71966 167.92628 225.24609 167.93945 C 234.37088 168.16771 241.49162 171.77766 242.26758 177.14453 C 243.22311 183.7499 234.19954 190.51505 222.11523 192.26172 C 220.2274 192.5346 218.36613 192.66878 216.58203 192.67578 C 206.95246 192.71198 199.31516 189.03025 198.50977 183.45703 C 197.55476 176.85167 206.57831 170.08846 218.66211 168.3418 C 220.36146 168.09613 222.03162 167.96257 223.64844 167.93359 z M 235.16992 197.53906 C 240.92047 197.65642 245.3766 199.74409 246.34961 203.2832 C 247.76645 208.43197 241.27195 214.716 231.85352 217.30664 C 229.4988 217.95403 227.1858 218.30308 225.01562 218.39258 C 224.60896 218.40908 224.21264 218.41606 223.81641 218.41406 C 217.87735 218.38756 213.22978 216.29162 212.23438 212.67188 C 210.81753 207.52309 217.31349 201.23908 226.73242 198.64844 C 229.67537 197.83887 232.55604 197.48576 235.16992 197.53906 z M 253.04297 221.10938 C 257.2518 221.19543 260.51413 222.72437 261.22656 225.31445 C 262.26179 229.08129 257.50756 233.661 250.61719 235.55664 C 248.8942 236.03032 247.20898 236.29633 245.62109 236.36133 C 245.32404 236.37383 245.02934 236.38481 244.74023 236.38281 L 244.73828 236.38281 C 240.39356 236.36165 237.00241 234.81361 236.27344 232.16406 C 235.2382 228.39768 239.97774 223.81703 246.86914 221.92188 C 249.02255 221.3298 251.12986 221.07028 253.04297 221.10938 z M 269.25781 238.13086 C 272.29799 238.00558 274.72859 239.00124 275.22461 240.80469 C 275.88648 243.20981 272.85422 246.13817 268.45508 247.34766 C 267.3553 247.65015 266.26954 247.81542 265.25586 247.85742 L 265.25586 247.85547 C 262.21533 247.9815 259.78836 246.98716 259.29297 245.18359 C 258.63111 242.77948 261.66289 239.85064 266.0625 238.64062 C 267.16204 238.33814 268.24442 238.17266 269.25781 238.13086 z M 280.37695 251.88477 C 282.47824 251.80162 284.16185 252.49403 284.50391 253.73828 C 284.9605 255.39727 282.86935 257.4149 279.83398 258.25 C 278.88585 258.51063 277.94989 258.63048 277.10742 258.61328 L 277.10742 258.61523 C 275.25488 258.57693 273.81387 257.90035 273.5 256.75977 C 273.04392 255.10078 275.13455 253.06896 278.16992 252.23438 C 278.92863 252.02572 279.67652 251.91247 280.37695 251.88477 z M 256 396.80078 L 279 414.69922 L 279 488.40039 L 233 488.40039 L 233 414.69922 L 256 396.80078 z "
     id="path2" />
</svg>
