<?xml version="1.0" encoding="UTF-8" standalone="no"?>
<svg
   xmlns:dc="http://purl.org/dc/elements/1.1/"
   xmlns:cc="http://creativecommons.org/ns#"
   xmlns:rdf="http://www.w3.org/1999/02/22-rdf-syntax-ns#"
   xmlns:svg="http://www.w3.org/2000/svg"
   xmlns="http://www.w3.org/2000/svg"
   xmlns:sodipodi="http://sodipodi.sourceforge.net/DTD/sodipodi-0.dtd"
   xmlns:inkscape="http://www.inkscape.org/namespaces/inkscape"
   style="height: 512px; width: 512px;"
   viewBox="0 0 512 512"
   version="1.1"
   id="svg8"
   sodipodi:docname="rek_mtyr_moment_dash.svg"
   inkscape:export-filename="D:\Games\SteamLibrary\steamapps\common\TalesMajEyal\game\addons\tome-classmartyr\overload\data\gfx\talents\rek_mtyr_moment_dash.png"
   inkscape:export-xdpi="12"
   inkscape:export-ydpi="12"
   inkscape:version="0.92.4 (5da689c313, 2019-01-14)">
  <metadata
     id="metadata14">
    <rdf:RDF>
      <cc:Work
         rdf:about="">
        <dc:format>image/svg+xml</dc:format>
        <dc:type
           rdf:resource="http://purl.org/dc/dcmitype/StillImage" />
      </cc:Work>
    </rdf:RDF>
  </metadata>
  <defs
     id="defs12" />
  <sodipodi:namedview
     pagecolor="#ffffff"
     bordercolor="#666666"
     borderopacity="1"
     objecttolerance="10"
     gridtolerance="10"
     guidetolerance="10"
     inkscape:pageopacity="0"
     inkscape:pageshadow="2"
     inkscape:window-width="1920"
     inkscape:window-height="1057"
     id="namedview10"
     showgrid="false"
     inkscape:zoom="1.3037281"
     inkscape:cx="220.67361"
     inkscape:cy="192.5007"
     inkscape:window-x="-8"
     inkscape:window-y="-8"
     inkscape:window-maximized="1"
     inkscape:current-layer="svg8" />
  <path
     d="M0 0h512v512H0z"
     fill="#000000"
     fill-opacity="1"
     id="path2" />
  <g
     class=""
     style="touch-action: none;"
     transform="translate(0,0)"
     id="g6" />
  <path
     id="path4-0"
     style="fill:#ffffff;fill-opacity:1"
     d="m 222.563,445.78706 23,-46 h 20.875 l 23,46 z m -9.584,-21.084 c -13.28202,-3.19241 -26.16172,-7.87231 -38.395,-13.951 l 7.213,-30.192 c 14.04866,7.82621 29.25095,13.37193 45.039,16.43 z m 86.04,0 -13.855,-27.713 c 15.78954,-3.05829 30.99322,-8.6047 45.043,-16.432 l 7.211,30.192 c -12.23414,6.0796 -25.11486,10.76017 -38.398,13.953 z m -76.456,-373.624003 23,46 h 20.875 l 23,-46 z m -9.584,21.084 c -13.28202,3.192409 -26.16172,7.872306 -38.395,13.951 l 7.213,30.192003 c 14.04866,-7.82621 29.25095,-13.37193 45.039,-16.430003 z m 86.04,0 -13.855,27.713 c 15.78954,3.058293 30.99322,8.604703 45.043,16.432003 l 7.211,-30.192003 c -12.23414,-6.079601 -25.11486,-10.760174 -38.398,-13.953 z m 59.293,3.965 -11.95,50.021003 15.992,13.418 47.187,-20.455 -51.228,-42.984003 z m -204.61,0.035 -51.232,42.986003 47.187,20.453 15.992,-13.418 L 153.7,76.163057 Z m 135.573,51.710003 -52.263,84.911 -77.059,-44.828 44.723,81.209 -65.537,28.932 69.595,8.767 -46.107,49.54 83.685,-23.093 40.836,44.71 3.768,-57.436 53.227,17.664 -25.758,-40.068 63.472,-12.266 -74.347,-27.846 48.672,-50.334 -64.664,15.7 -2.243,-75.561 z m 114.047,13.554 -28.504,12.355 c 10.14264,12.48348 18.25356,26.4881 24.034,41.498 l 24.91,-18.474 c -5.46821,-12.52091 -12.32446,-24.38853 -20.44,-35.38 z m -294.66,0.023 c -8.1122,10.98901 -14.96574,22.85357 -20.432,35.371 l 24.91,18.477 c 5.77792,-15.00716 13.88542,-29.00968 24.024,-41.492 z m 337.54,41.123 -41.307,30.639 3.625,20.556 49.293,14.665 -11.612,-65.86 z m -380.358,0.053 -11.612,65.86 49.295,-14.663 3.625,-20.558 -41.308,-30.64 z m 343.123,70.057 c -0.277,16.504 -3.174,32.38 -8.299,47.226 l 30.937,1.858 c 3.84089,-13.11503 6.19896,-26.61941 7.03,-40.26 z m -305.932,0.068 -29.666,8.822 c 0.835763,13.63563 3.197511,27.13459 7.041,40.244 l 30.94,-1.857 c -5.129,-14.84 -8.03,-30.71 -8.315,-47.21 z m 290.735,64.777 -10.438,18.078 28.336,42.918 33.437,-57.916 z m -275.456,0.047 -51.337,3.082 33.437,57.916 28.338,-42.92 z m 253.178,32.77 c -8.00032,9.20131 -17.06361,17.42138 -27,24.488 l 14.692,26.445 c 10.66006,-7.27934 20.52291,-15.66235 29.425,-25.01 z m -230.92,0.074 -17.115,25.922 c 8.8842,9.3196 18.724,17.67892 29.357,24.94 l 14.692,-26.446 c -9.90918,-7.04835 -18.94998,-15.24394 -26.934,-24.416 z"
     inkscape:connector-curvature="0" />
</svg>
