<?xml version="1.0" encoding="UTF-8" standalone="no"?>
<svg
   xmlns:dc="http://purl.org/dc/elements/1.1/"
   xmlns:cc="http://creativecommons.org/ns#"
   xmlns:rdf="http://www.w3.org/1999/02/22-rdf-syntax-ns#"
   xmlns:svg="http://www.w3.org/2000/svg"
   xmlns="http://www.w3.org/2000/svg"
   xmlns:sodipodi="http://sodipodi.sourceforge.net/DTD/sodipodi-0.dtd"
   xmlns:inkscape="http://www.inkscape.org/namespaces/inkscape"
   style="height: 512px; width: 512px;"
   viewBox="0 0 512 512"
   version="1.1"
   id="svg8"
   sodipodi:docname="rek_mtyr_standard_tunneling.svg"
   inkscape:export-filename="D:\Games\SteamLibrary\steamapps\common\TalesMajEyal\game\addons\tome-classmartyr\overload\data\gfx\talents\rek_mtyr_standard_tunneling.png"
   inkscape:export-xdpi="12"
   inkscape:export-ydpi="12"
   inkscape:version="0.92.4 (5da689c313, 2019-01-14)">
  <metadata
     id="metadata14">
    <rdf:RDF>
      <cc:Work
         rdf:about="">
        <dc:format>image/svg+xml</dc:format>
        <dc:type
           rdf:resource="http://purl.org/dc/dcmitype/StillImage" />
      </cc:Work>
    </rdf:RDF>
  </metadata>
  <defs
     id="defs12" />
  <sodipodi:namedview
     pagecolor="#ffffff"
     bordercolor="#666666"
     borderopacity="1"
     objecttolerance="10"
     gridtolerance="10"
     guidetolerance="10"
     inkscape:pageopacity="0"
     inkscape:pageshadow="2"
     inkscape:window-width="1920"
     inkscape:window-height="1057"
     id="namedview10"
     showgrid="false"
     inkscape:zoom="0.4609375"
     inkscape:cx="420.28677"
     inkscape:cy="-39.770498"
     inkscape:window-x="-8"
     inkscape:window-y="-8"
     inkscape:window-maximized="1"
     inkscape:current-layer="svg8" />
  <path
     d="M 0 0 L 0 512 L 512 512 L 512 0 L 0 0 z M 151 32 L 169 32 L 169 279 L 151 279 L 151 32 z M 398 41.574219 L 398 158.25195 L 393.42773 160.83594 C 356.05373 181.95994 319.42041 175.06947 287.06641 166.98047 C 254.71341 158.89247 226.39472 150.31911 200.51172 161.28711 L 188 166.58789 L 188 51.039062 L 193.48828 48.712891 C 226.60428 34.679891 259.78659 45.607531 291.43359 53.519531 C 323.07959 61.430531 352.94627 67.040063 384.57227 49.164062 L 398 41.574219 z M 73 297 L 119 297 L 119 336 L 137 336 L 137 297 L 183 297 L 183 336 L 201 336 L 201 297 L 247 297 L 247 336 L 265 336 L 265 297 L 311 297 L 311 336 L 329 336 L 329 297 L 375 297 L 375 336 L 393 336 L 393 297 L 439 297 L 439 364.27148 L 407 396.27148 L 407 487 L 105 487 L 105 396.27148 L 73 364.27148 L 73 297 z "
     id="path2" />
</svg>
