<?xml version="1.0" encoding="UTF-8" standalone="no"?>
<svg
   xmlns:dc="http://purl.org/dc/elements/1.1/"
   xmlns:cc="http://creativecommons.org/ns#"
   xmlns:rdf="http://www.w3.org/1999/02/22-rdf-syntax-ns#"
   xmlns:svg="http://www.w3.org/2000/svg"
   xmlns="http://www.w3.org/2000/svg"
   xmlns:sodipodi="http://sodipodi.sourceforge.net/DTD/sodipodi-0.dtd"
   xmlns:inkscape="http://www.inkscape.org/namespaces/inkscape"
   style="height: 512px; width: 512px;"
   viewBox="0 0 512 512"
   version="1.1"
   id="svg8"
   sodipodi:docname="rek_mtyr_standard_irruption.svg"
   inkscape:export-filename="D:\Games\SteamLibrary\steamapps\common\TalesMajEyal\game\addons\tome-classmartyr\overload\data\gfx\talents\rek_mtyr_standard_irruption.png"
   inkscape:export-xdpi="12"
   inkscape:export-ydpi="12"
   inkscape:version="0.92.4 (5da689c313, 2019-01-14)">
  <metadata
     id="metadata14">
    <rdf:RDF>
      <cc:Work
         rdf:about="">
        <dc:format>image/svg+xml</dc:format>
        <dc:type
           rdf:resource="http://purl.org/dc/dcmitype/StillImage" />
      </cc:Work>
    </rdf:RDF>
  </metadata>
  <defs
     id="defs12" />
  <sodipodi:namedview
     pagecolor="#ffffff"
     bordercolor="#666666"
     borderopacity="1"
     objecttolerance="10"
     gridtolerance="10"
     guidetolerance="10"
     inkscape:pageopacity="0"
     inkscape:pageshadow="2"
     inkscape:window-width="1920"
     inkscape:window-height="1057"
     id="namedview10"
     showgrid="false"
     inkscape:zoom="0.921875"
     inkscape:cx="234.48799"
     inkscape:cy="290.20322"
     inkscape:window-x="-8"
     inkscape:window-y="-8"
     inkscape:window-maximized="1"
     inkscape:current-layer="svg8" />
  <path
     d="M 0 0 L 0 512 L 512 512 L 512 0 L 0 0 z M 145.89648 18.310547 L 164.1875 158.80664 C 191.8605 148.45164 218.17192 135.37488 241.91992 117.17188 L 254.6543 118.9082 C 261.5793 129.7072 273.0663 137.45681 288.2793 139.75781 C 298.8243 139.75781 308.2308 134.77727 315.4668 127.19727 L 321.04688 127.95898 C 345.81788 141.31098 377.42659 150.97659 391.80859 162.30859 C 397.80359 192.98859 391.35216 222.35516 391.53516 253.03516 C 399.12116 256.31216 408.34327 258.12817 409.57227 261.07617 C 418.33427 305.87817 419.09595 343.14666 416.62695 357.59766 L 385.46484 349.55273 C 389.54884 323.86773 389.59938 308.92641 376.48438 286.94141 C 376.48437 286.94141 319.49 276.43523 300.75 293.49023 C 268.96 322.42323 276.09025 416.94328 276.65625 423.86328 C 265.30625 423.56128 251.43586 423.42431 238.75586 423.57031 C 239.33786 333.10831 255.90281 241.36611 241.13281 150.91211 C 218.82581 170.74111 193.49281 179.47545 167.88281 187.18945 L 198.81836 424.80273 C 190.57036 425.21873 182.48531 425.72636 174.57031 426.31836 L 124.38672 21.326172 L 145.89648 18.310547 z M 288.2793 36.939453 C 294.4903 36.939453 300.65203 40.55175 305.83203 48.09375 C 311.01203 55.63575 314.59375 66.823609 314.59375 79.349609 C 314.59375 91.874609 311.01203 103.06052 305.83203 110.60352 C 300.65103 118.14552 294.4903 121.75781 288.2793 121.75781 C 282.0693 121.75781 275.91047 118.14552 270.73047 110.60352 C 265.54847 103.06052 261.96875 91.874609 261.96875 79.349609 C 261.96875 66.823609 265.54947 55.63575 270.73047 48.09375 C 275.91047 40.55175 282.0693 36.939453 288.2793 36.939453 z M 109.87305 54.400391 L 116.64453 110.55859 C 116.58453 120.02259 113.79233 133.00734 108.73633 142.52734 C 103.62333 152.15434 97.627703 157.32566 89.970703 157.09766 C 78.755703 156.76366 68.81925 160.26014 61.15625 166.24414 C 53.49425 172.22814 48.027266 180.35672 43.822266 189.26172 C 42.010266 193.10072 40.507844 197.16448 39.089844 201.27148 C 36.194844 179.20648 34.567141 157.55067 37.119141 140.13867 C 38.790141 128.74267 41.612703 120.43875 46.470703 114.71875 C 51.327703 108.99975 58.604125 104.85616 72.328125 102.91016 C 81.614125 101.59416 88.754234 95.520641 94.115234 88.306641 C 99.477234 81.091641 103.54339 72.317078 107.02539 62.955078 C 108.06339 60.168078 108.94105 57.268391 109.87305 54.400391 z M 323.74414 160.9707 C 327.25814 178.9527 326.78255 193.65033 323.81055 228.11133 C 326.31955 241.77833 347.32459 246.90377 369.43359 251.25977 C 370.23859 227.39877 375.43052 201.35023 368.60352 177.49023 C 351.16752 176.45123 337.51614 169.3367 323.74414 160.9707 z M 372.58008 364.81641 L 442.99219 382.99609 C 453.78519 403.21909 459.83844 423.72531 459.89844 443.69531 C 422.79344 433.96731 384.55578 430.69394 347.67578 428.08594 C 359.55878 407.29094 367.99508 386.56641 372.58008 364.81641 z M 254.90625 441.50586 C 353.32117 441.98288 437.16053 457.6097 494 472.06055 L 494 491 L 18 491 L 18 469.92578 C 70.494 456.15778 147.85589 442.01677 245.33789 441.50977 L 245.33789 441.50781 C 248.54248 441.49113 251.73158 441.49047 254.90625 441.50586 z "
     id="path2" />
</svg>
