<?xml version="1.0" encoding="UTF-8" standalone="no"?>
<svg
   xmlns:dc="http://purl.org/dc/elements/1.1/"
   xmlns:cc="http://creativecommons.org/ns#"
   xmlns:rdf="http://www.w3.org/1999/02/22-rdf-syntax-ns#"
   xmlns:svg="http://www.w3.org/2000/svg"
   xmlns="http://www.w3.org/2000/svg"
   xmlns:sodipodi="http://sodipodi.sourceforge.net/DTD/sodipodi-0.dtd"
   xmlns:inkscape="http://www.inkscape.org/namespaces/inkscape"
   style="height: 512px; width: 512px;"
   viewBox="0 0 512 512"
   version="1.1"
   id="svg8"
   sodipodi:docname="rek_mtyr_crucible_memento.svg"
   inkscape:version="0.92.4 (5da689c313, 2019-01-14)"
   inkscape:export-filename="D:\Games\SteamLibrary\steamapps\common\TalesMajEyal\game\addons\tome-classmartyr\overload\data\gfx\talents\source\rek_mtyr_crucible_memento.png"
   inkscape:export-xdpi="25.4"
   inkscape:export-ydpi="25.4">
  <metadata
     id="metadata14">
    <rdf:RDF>
      <cc:Work
         rdf:about="">
        <dc:format>image/svg+xml</dc:format>
        <dc:type
           rdf:resource="http://purl.org/dc/dcmitype/StillImage" />
      </cc:Work>
    </rdf:RDF>
  </metadata>
  <defs
     id="defs12" />
  <sodipodi:namedview
     pagecolor="#ffffff"
     bordercolor="#666666"
     borderopacity="1"
     objecttolerance="10"
     gridtolerance="10"
     guidetolerance="10"
     inkscape:pageopacity="0"
     inkscape:pageshadow="2"
     inkscape:window-width="1920"
     inkscape:window-height="1057"
     id="namedview10"
     showgrid="false"
     inkscape:zoom="0.921875"
     inkscape:cx="153.74624"
     inkscape:cy="373.71044"
     inkscape:window-x="-8"
     inkscape:window-y="-8"
     inkscape:window-maximized="1"
     inkscape:current-layer="svg8" />
  <path
     d="M 0 0 L 0 512 L 512 512 L 512 0 L 0 0 z M 356.9707 25.398438 L 406.40625 25.523438 C 290.99625 238.55144 81.01025 149.06369 65.65625 452.42969 L 65.654297 452.42969 L 27.90625 442.86719 C 33.54925 364.84519 56.451703 310.47544 88.345703 268.39844 C 71.805703 258.05044 47.653453 248.72469 19.564453 241.55469 C 25.228453 234.95769 33.81375 225.37539 50.09375 223.02539 C 74.93975 227.35539 90.00575 238.00619 103.84375 249.61719 C 180.08375 164.47219 294.0647 130.66344 356.9707 25.398438 z M 104.625 351.36719 C 181.175 437.93119 393.6507 469.04219 486.7207 385.86719 C 456.02093 463.40061 384.04611 488.99254 296.625 488.46094 C 232.83148 488.07266 160.81499 473.778 90.595703 455.61719 C 87.123703 421.53719 92.821 386.71119 104.625 351.36719 z "
     id="path2" />
</svg>
