<?xml version="1.0" encoding="UTF-8" standalone="no"?>
<svg
   xmlns:dc="http://purl.org/dc/elements/1.1/"
   xmlns:cc="http://creativecommons.org/ns#"
   xmlns:rdf="http://www.w3.org/1999/02/22-rdf-syntax-ns#"
   xmlns:svg="http://www.w3.org/2000/svg"
   xmlns="http://www.w3.org/2000/svg"
   xmlns:sodipodi="http://sodipodi.sourceforge.net/DTD/sodipodi-0.dtd"
   xmlns:inkscape="http://www.inkscape.org/namespaces/inkscape"
   style="height: 512px; width: 512px;"
   viewBox="0 0 512 512"
   version="1.1"
   id="svg8"
   sodipodi:docname="rek_mtyr_standard_control.svg"
   inkscape:export-filename="D:\Games\SteamLibrary\steamapps\common\TalesMajEyal\game\addons\tome-classmartyr\overload\data\gfx\talents\rek_mtyr_standard_control.png"
   inkscape:export-xdpi="12"
   inkscape:export-ydpi="12"
   inkscape:version="0.92.4 (5da689c313, 2019-01-14)">
  <metadata
     id="metadata14">
    <rdf:RDF>
      <cc:Work
         rdf:about="">
        <dc:format>image/svg+xml</dc:format>
        <dc:type
           rdf:resource="http://purl.org/dc/dcmitype/StillImage" />
      </cc:Work>
    </rdf:RDF>
  </metadata>
  <defs
     id="defs12" />
  <sodipodi:namedview
     pagecolor="#ffffff"
     bordercolor="#666666"
     borderopacity="1"
     objecttolerance="10"
     gridtolerance="10"
     guidetolerance="10"
     inkscape:pageopacity="0"
     inkscape:pageshadow="2"
     inkscape:window-width="1920"
     inkscape:window-height="1057"
     id="namedview10"
     showgrid="false"
     inkscape:zoom="0.4609375"
     inkscape:cx="256"
     inkscape:cy="256"
     inkscape:window-x="-8"
     inkscape:window-y="-8"
     inkscape:window-maximized="1"
     inkscape:current-layer="svg8" />
  <path
     d="M 0 0 L 0 512 L 512 512 L 512 0 L 0 0 z M 356.6875 19.1875 L 356.68555 19.189453 C 357.66255 19.194453 358.6443 19.218953 359.6543 19.251953 C 381.6263 19.979953 412.1843 27.980203 454.7793 47.533203 C 431.5373 68.656203 411.18405 98.874453 398.49805 131.56445 C 386.73805 161.86945 381.69105 194.50525 388.62305 223.78125 C 332.02105 198.53625 294.67875 192.73525 266.96875 199.03125 C 254.53875 201.85525 244.45825 207.11495 235.90625 213.62695 C 247.10425 189.30695 259.21625 161.42445 275.90625 130.68945 L 259.5 121.75195 C 231.813 172.74195 216.264 215.71245 199.25 244.93945 C 185.861 267.93745 172.96305 282.20425 151.37305 288.03125 C 151.36305 288.03525 151.35375 288.03125 151.34375 288.03125 C 127.58875 292.08225 90.43675 285.65625 30.34375 257.15625 C 57.84375 207.12025 81.237 123.38 91.25 78.5 C 154.27 108.253 195.0807 115.7802 224.8457 109.6582 C 256.3087 103.1812 273.125 81.3625 287.625 62.1875 C 302.126 43.0135 314.3845 26.52625 338.5625 21.03125 C 343.8505 19.82825 349.8575 19.1555 356.6875 19.1875 z M 484.22656 33.332031 L 484.22852 33.332031 C 490.22347 33.508228 494.44727 39.215304 490.97266 49.367188 L 313.14062 497.31055 L 289.5293 497.31055 L 469.48047 44.695312 C 472.62447 38.022312 477.18645 34.574656 481.56445 33.597656 C 482.47578 33.393808 483.36915 33.307216 484.22656 33.332031 z "
     id="path2" />
</svg>
