<?xml version="1.0" encoding="UTF-8" standalone="no"?>
<svg
   xmlns:dc="http://purl.org/dc/elements/1.1/"
   xmlns:cc="http://creativecommons.org/ns#"
   xmlns:rdf="http://www.w3.org/1999/02/22-rdf-syntax-ns#"
   xmlns:svg="http://www.w3.org/2000/svg"
   xmlns="http://www.w3.org/2000/svg"
   xmlns:sodipodi="http://sodipodi.sourceforge.net/DTD/sodipodi-0.dtd"
   xmlns:inkscape="http://www.inkscape.org/namespaces/inkscape"
   style="height: 512px; width: 512px;"
   viewBox="0 0 512 512"
   version="1.1"
   id="svg8"
   sodipodi:docname="rek_mtyr_revelation_eyes.svg"
   inkscape:export-filename="D:\Games\SteamLibrary\steamapps\common\TalesMajEyal\game\addons\tome-classmartyr\overload\data\gfx\talents\rek_mtyr_revelation_eyes.png"
   inkscape:export-xdpi="12"
   inkscape:export-ydpi="12"
   inkscape:version="0.92.4 (5da689c313, 2019-01-14)">
  <metadata
     id="metadata14">
    <rdf:RDF>
      <cc:Work
         rdf:about="">
        <dc:format>image/svg+xml</dc:format>
        <dc:type
           rdf:resource="http://purl.org/dc/dcmitype/StillImage" />
      </cc:Work>
    </rdf:RDF>
  </metadata>
  <defs
     id="defs12" />
  <sodipodi:namedview
     pagecolor="#ffffff"
     bordercolor="#666666"
     borderopacity="1"
     objecttolerance="10"
     gridtolerance="10"
     guidetolerance="10"
     inkscape:pageopacity="0"
     inkscape:pageshadow="2"
     inkscape:window-width="1920"
     inkscape:window-height="1057"
     id="namedview10"
     showgrid="false"
     inkscape:zoom="0.4609375"
     inkscape:cx="256"
     inkscape:cy="256"
     inkscape:window-x="-8"
     inkscape:window-y="-8"
     inkscape:window-maximized="1"
     inkscape:current-layer="svg8" />
  <path
     d="M 0 0 L 0 512 L 512 512 L 512 0 L 0 0 z M 257.25 23.375 L 257.25195 23.375 C 298.79295 23.375 332.6582 57.2725 332.6582 98.8125 C 332.6582 116.2665 326.6732 132.35625 316.6582 145.15625 C 350.2702 173.88425 391.15645 196.83375 435.43945 217.09375 L 79.03125 217.09375 C 122.03225 196.71975 162.699 173.84 197.125 144.25 C 187.526 131.599 181.8125 115.8555 181.8125 98.8125 C 181.8125 57.2705 215.71 23.375 257.25 23.375 z M 257.25 42.09375 C 225.81 42.09375 200.5 67.3705 200.5 98.8125 C 200.5 111.0975 204.3857 122.4245 210.9707 131.6875 C 228.5907 114.6635 244.233 95.5325 257.25 73.5625 C 269.36 95.7205 284.80075 115.20625 302.84375 132.65625 C 309.83975 123.22325 313.9707 111.5195 313.9707 98.8125 C 313.9707 67.3705 288.69 42.095703 257.25 42.095703 L 257.25 42.09375 z M 153.2207 235.625 L 361.25 235.625 L 361.25 439.4375 L 153.2207 439.4375 L 153.2207 235.625 z M 256.71875 253.625 C 227.15075 253.863 198.46625 269.3045 182.65625 296.6875 C 158.91825 337.8035 173.0725 390.637 214.1875 414.375 C 255.3045 438.113 308.13605 423.9597 331.87305 382.8457 C 355.61305 341.7297 341.45875 288.863 300.34375 265.125 C 287.49375 257.707 273.48675 254.0043 259.59375 253.6543 C 258.63975 253.6313 257.6737 253.617 256.7207 253.625 L 256.71875 253.625 z M 266.0293 272.81445 C 274.5733 273.94245 283.054 276.72645 291 281.31445 C 302.92 288.19645 311.94625 298.12125 317.65625 309.53125 L 266.0293 309.53125 L 266.0293 272.81445 z M 247.34375 272.96875 L 247.34375 309.5293 L 196.9375 309.5293 C 197.5285 308.3543 198.14445 307.1863 198.81445 306.0293 C 209.55445 287.4253 227.70375 275.88175 247.34375 272.96875 z M 190.71875 328.21875 L 190.7207 328.2207 L 247.34375 328.2207 L 247.34375 356.1543 L 191.74805 356.1543 C 189.48305 347.1183 189.07875 337.58875 190.71875 328.21875 z M 266.0293 328.21875 L 266.03125 328.21875 L 323.81055 328.21875 C 325.39555 337.37175 325.06075 346.8843 322.71875 356.1543 L 266.0293 356.1543 L 266.0293 328.21875 z M 199.5625 374.84375 L 199.56445 374.84375 L 247.34375 374.84375 L 247.34375 406.5293 C 239.19375 405.3063 231.1213 402.5695 223.5293 398.1875 C 213.3363 392.3015 205.2625 384.20175 199.5625 374.84375 z M 266.0293 374.84375 L 314.875 374.84375 C 303.834 393.00175 285.6143 404.1235 266.0293 406.6875 L 266.0293 374.84375 z M 121.5293 458.12305 L 392.93945 458.12305 L 392.93945 496.68555 L 121.5293 496.68555 L 121.5293 458.12305 z "
     id="path2" />
</svg>
