<?xml version="1.0" encoding="UTF-8" standalone="no"?>
<svg
   xmlns:dc="http://purl.org/dc/elements/1.1/"
   xmlns:cc="http://creativecommons.org/ns#"
   xmlns:rdf="http://www.w3.org/1999/02/22-rdf-syntax-ns#"
   xmlns:svg="http://www.w3.org/2000/svg"
   xmlns="http://www.w3.org/2000/svg"
   xmlns:sodipodi="http://sodipodi.sourceforge.net/DTD/sodipodi-0.dtd"
   xmlns:inkscape="http://www.inkscape.org/namespaces/inkscape"
   style="height: 512px; width: 512px;"
   viewBox="0 0 512 512"
   version="1.1"
   id="svg8"
   sodipodi:docname="rek_mtyr_revelation_abyssal_shot.svg"
   inkscape:export-filename="D:\Games\SteamLibrary\steamapps\common\TalesMajEyal\game\addons\tome-classmartyr\overload\data\gfx\talents\rek_mtyr_revelation_abyssal_shot.png"
   inkscape:export-xdpi="12"
   inkscape:export-ydpi="12"
   inkscape:version="0.92.4 (5da689c313, 2019-01-14)">
  <metadata
     id="metadata14">
    <rdf:RDF>
      <cc:Work
         rdf:about="">
        <dc:format>image/svg+xml</dc:format>
        <dc:type
           rdf:resource="http://purl.org/dc/dcmitype/StillImage" />
      </cc:Work>
    </rdf:RDF>
  </metadata>
  <defs
     id="defs12" />
  <sodipodi:namedview
     pagecolor="#ffffff"
     bordercolor="#666666"
     borderopacity="1"
     objecttolerance="10"
     gridtolerance="10"
     guidetolerance="10"
     inkscape:pageopacity="0"
     inkscape:pageshadow="2"
     inkscape:window-width="1920"
     inkscape:window-height="1057"
     id="namedview10"
     showgrid="false"
     inkscape:zoom="0.65186406"
     inkscape:cx="429.92031"
     inkscape:cy="130.59854"
     inkscape:window-x="-8"
     inkscape:window-y="-8"
     inkscape:window-maximized="1"
     inkscape:current-layer="svg8" />
  <path
     d="M 0 0 L 0 512 L 512 512 L 512 0 L 0 0 z M 18.359375 18.335938 L 84.041016 18.335938 L 83.859375 18.484375 C 164.4718 116.67478 246.13784 213.21251 328.48438 311.76562 L 367.34375 358.76367 L 361.54492 303.17969 L 398.80469 358.02148 L 407.10742 285.36523 L 450.75781 390.3418 L 463.25781 364.57812 C 480.34081 399.98615 491.60983 446.37753 491.92383 491.26953 L 491.91602 491.27148 C 426.85502 490.62848 391.13758 484.92673 356.26758 468.55273 L 373.67188 453.41211 L 293.57031 420.68555 L 365.5332 420.29102 L 299.44336 371.74805 L 352.36133 371.2168 L 317.81055 342.49805 C 218.39247 257.8511 116.58589 173.40846 18.359375 90.748047 L 18.359375 18.335938 z M 348.88477 19.599609 C 377.19626 19.480489 406.37143 22.597555 436.00195 29.324219 C 426.85904 126.04537 400.79477 225.42436 336.21289 297.61914 C 329.93763 290.1116 323.66665 282.61023 317.40039 275.125 C 365.29696 222.02619 397.84619 148.92711 416.98633 54.755859 C 391.97637 48.17719 367.07604 45.024627 342.69336 44.910156 C 279.1809 44.61198 219.18684 64.926624 169.9043 98.923828 C 164.41084 92.328586 158.92167 85.727531 153.4375 79.126953 C 208.05007 41.915906 275.56947 19.908084 348.88477 19.599609 z M 210.93945 115.88281 C 236.82525 116.08146 262.56581 126.59268 281.47461 147.14062 C 308.55653 176.57019 313.93608 218.23859 298.47461 252.5293 C 286.92957 238.75307 275.4415 225.04582 263.92969 211.31836 C 263.00927 198.1939 256.46562 185.38528 244.26562 175.31445 C 238.73954 170.75278 232.47317 167.80645 225.9707 166.03711 C 212.78363 150.29299 199.62776 134.55546 186.49023 118.81641 C 193.69603 117.00321 201.0618 116.02944 208.43359 115.89648 C 209.2687 115.88142 210.10443 115.8764 210.93945 115.88281 z M 73.685547 156.75977 C 80.464859 162.4386 87.248921 168.12731 94.046875 173.81836 C 52.248087 233.28286 33.550396 307.37444 51.632812 382.98438 C 139.89219 379.78472 211.21513 358.90615 267.43164 319.41602 C 275.14617 325.94177 282.86496 332.46493 290.55664 338.99414 C 229.95258 383.22052 145.61386 409.01601 28.6875 404.15039 C 5.0199786 311.83328 25.149291 224.6818 73.685547 156.75977 z M 115.6543 191.9082 C 129.72464 203.68501 143.78292 215.45361 157.89062 227.27148 C 159.50127 233.96526 162.56456 240.45292 167.69141 246.16016 C 179.00533 258.75489 192.39014 266.21039 206.04102 267.65625 C 219.74331 279.16817 233.4372 290.69156 247.10742 302.22461 C 210.67662 317.24337 167.22215 308.9656 138.97656 278.27148 C 116.7471 254.11503 109.13166 221.71155 115.6543 191.9082 z M 375.51758 378.57617 C 377.80858 402.05417 386.07292 421.17698 400.79492 436.08398 C 415.75292 451.23198 437.9043 462.31222 468.6543 467.82422 C 456.9893 418.13022 416.90558 386.06917 375.51758 378.57617 z "
     id="path2" />
</svg>
