<?xml version="1.0" encoding="UTF-8" standalone="no"?>
<svg
   xmlns:dc="http://purl.org/dc/elements/1.1/"
   xmlns:cc="http://creativecommons.org/ns#"
   xmlns:rdf="http://www.w3.org/1999/02/22-rdf-syntax-ns#"
   xmlns:svg="http://www.w3.org/2000/svg"
   xmlns="http://www.w3.org/2000/svg"
   xmlns:sodipodi="http://sodipodi.sourceforge.net/DTD/sodipodi-0.dtd"
   xmlns:inkscape="http://www.inkscape.org/namespaces/inkscape"
   style="height: 512px; width: 512px;"
   viewBox="0 0 512 512"
   version="1.1"
   id="svg8"
   sodipodi:docname="rek_mtyr_moment_block.svg"
   inkscape:export-filename="D:\Games\SteamLibrary\steamapps\common\TalesMajEyal\game\addons\tome-classmartyr\overload\data\gfx\talents\rek_mtyr_moment_block.png"
   inkscape:export-xdpi="12"
   inkscape:export-ydpi="12"
   inkscape:version="0.92.4 (5da689c313, 2019-01-14)">
  <metadata
     id="metadata14">
    <rdf:RDF>
      <cc:Work
         rdf:about="">
        <dc:format>image/svg+xml</dc:format>
        <dc:type
           rdf:resource="http://purl.org/dc/dcmitype/StillImage" />
      </cc:Work>
    </rdf:RDF>
  </metadata>
  <defs
     id="defs12" />
  <sodipodi:namedview
     pagecolor="#ffffff"
     bordercolor="#666666"
     borderopacity="1"
     objecttolerance="10"
     gridtolerance="10"
     guidetolerance="10"
     inkscape:pageopacity="0"
     inkscape:pageshadow="2"
     inkscape:window-width="1920"
     inkscape:window-height="1057"
     id="namedview10"
     showgrid="false"
     inkscape:zoom="1.3037281"
     inkscape:cx="251.90872"
     inkscape:cy="233.48127"
     inkscape:window-x="-8"
     inkscape:window-y="-8"
     inkscape:window-maximized="1"
     inkscape:current-layer="svg8" />
  <path
     d="M0 0h512v512H0z"
     fill="#000000"
     fill-opacity="1"
     id="path2" />
  <g
     class=""
     style="touch-action: none;"
     transform="translate(0,0)"
     id="g6">
    <path
       d="M256 22C192 70 128 90 32 122c0 112 80 272 224 368 144-96 224-250 224-362-96-32-160-58-224-106zm0 97c75.6 0 137 61.4 137 137s-61.4 137-137 137-137-61.4-137-137 61.4-137 137-137zm-9 18.3c-42.9 3.2-79.3 29.1-97.6 65.6l97.9 39.9a16 17.12 0 0 1 8.7-2.8 16 17.12 0 0 1 2.9.3l38.7-38.7 12.8 12.8-38.8 38.8a16 17.12 0 0 1 .4 3.9 16 17.12 0 0 1-16 17.1 16 17.12 0 0 1-15.9-15l-97.4-39.7c-2.8 8.8-4.7 18-5.4 27.5H160v18h-22.7c4.4 58.6 51.1 105.3 109.7 109.7V352h18v22.7c58.6-4.4 105.3-51.1 109.7-109.7H352v-18h22.7c-4.4-58.6-51.1-105.3-109.7-109.7V160h-18v-22.7z"
       fill="#ffffff"
       fill-opacity="1"
       id="path4" />
  </g>
</svg>
